<svg viewBox="0 0 193 58" xmlns="http://www.w3.org/2000/svg" >
    <path d="M18.102 4.725h-4.96l-.5 1.193.068.115a46.126 46.126 0 0 1 2.366-.115l-7.28 12.708-1.182-6.836c-.433-2.477-.797-4.358-1.115-7.065H1.268L.79 5.918l.09.115a23.204 23.204 0 0 1 2.025-.092l1.457 7.776c.454 2.478.796 4.358 1.137 7.065h5.687l.66-1.56-.068-.114c-.956.137-1.593.252-2.616.298l5.05-8.579c1.274-2.156 2.298-3.762 3.89-6.102ZM21.31 20.782h2.866a93.8 93.8 0 0 1-.182-4.702l2.093 1.239c1.956 1.146 3.185 1.926 5.323 3.463h4.732v-.23c-2.252-1.123-4.436-2.453-5.87-3.302l-4.208-2.478 4.209-4.84c1.342-1.56 2.912-3.188 4.64-5v-.207h-4.936l-.455 1.193.045.115c.751-.07 1.366-.092 2.003-.092l-7.576 8.992v-3.097c0-2.5 0-4.381.182-7.11h-4.55l-.5 1.192.068.115c.955-.07 1.638-.092 2.297-.115v7.753c0 2.5 0 4.382-.181 7.111ZM38.986 20.782h4.55l.5-1.193-.068-.114c-.956.069-1.638.091-2.298.114v-3.693h1.911c4.118 0 6.87-2.248 6.87-5.597 0-3.326-2.752-5.574-6.87-5.574h-6.279l-.5 1.193.068.115c.956-.07 1.638-.092 2.298-.115v7.753c0 2.5 0 4.382-.182 7.111Zm2.684-6.102V5.941h1.706c2.708 0 4.414 1.698 4.414 4.358 0 2.684-1.706 4.381-4.414 4.381H41.67ZM50.133 20.782h4.618l.5-1.193-.068-.114c-.887.069-1.593.091-2.366.114l1.252-2.202h7.484c.136 1.056.25 2.134.364 3.395h4.026l.501-1.193-.068-.114c-.797.069-1.456.091-2.048.091l-1.183-7.776a103.137 103.137 0 0 1-.887-7.065h-5.323l-.66 1.56.068.115c.956-.138 1.593-.253 2.616-.298l-5.05 8.578c-1.251 2.134-2.23 3.763-3.776 6.102Zm5.255-5.711 4.686-8.166.956 6.812.182 1.354h-5.824ZM70.607 3.234l2.32-3.12L72.883 0h-2.275L69.22 3.234h1.388Zm2.23 0h1.387l2.32-3.12L76.5 0h-2.275l-1.388 3.234Zm.364 1.491h-4.55l-.5 1.193.068.115c.955-.069 1.637-.092 2.297-.115v7.753c0 2.5 0 4.381-.182 7.111h4.55l.5-1.192-.068-.115c-.955.068-1.638.092-2.297.114v-7.753c0-2.5 0-4.381.181-7.11ZM91.195 20.782h4.55l.5-1.193-.068-.114c-.955.069-1.638.091-2.297.114v-7.753c0-2.5 0-4.381.182-7.11h-2.867c.182 2.729.182 4.61.182 7.11v1.308h-8.303v-1.308c0-2.5 0-4.381.182-7.11h-4.55l-.5 1.192.068.115c.955-.07 1.638-.092 2.297-.115v7.753c0 2.5 0 4.382-.182 7.111h2.867c-.16-2.317-.182-4.037-.182-6.033h8.303c0 1.996-.022 3.716-.182 6.033ZM112.261 20.37l1.683-3.419-.341-.229c-1.706 1.56-4.231 2.936-6.119 2.936-4.072 0-6.279-4.22-6.279-7.982 0-3.097 1.456-5.896 4.527-5.896 3.117 0 5.391 1.33 6.961 2.868l.228-.07-.956-3.715c-.5.046-1.001.091-1.297.091-.818 0-2.547-.573-4.072-.573-4.663 0-7.939 3.464-7.939 8.373 0 4.909 3.276 8.372 7.939 8.372 3.413 0 4.55-.504 5.665-.757ZM117.493 20.782h4.595c4.118 0 6.871-2.248 6.871-5.597 0-3.326-2.753-5.574-6.871-5.574h-1.91c.022-1.537.068-3.005.182-4.886h-4.55l-.501 1.193.068.115c.956-.07 1.639-.092 2.298-.115v7.753c0 2.5 0 4.382-.182 7.111Zm2.685-1.216v-8.739h1.706c2.707 0 4.413 1.697 4.413 4.358 0 2.684-1.706 4.381-4.413 4.381h-1.706ZM133.418 20.782h2.866a93.775 93.775 0 0 1-.182-4.702l2.093 1.239c1.957 1.146 3.185 1.926 5.323 3.463h4.732v-.23c-2.252-1.123-4.436-2.453-5.869-3.302l-4.209-2.478 4.209-4.84c1.342-1.56 2.912-3.188 4.641-5v-.207h-4.937l-.455 1.193.046.115a20.995 20.995 0 0 1 2.002-.092l-7.576 8.992v-3.097c0-2.5 0-4.381.182-7.11h-4.55l-.5 1.192.068.115c.956-.07 1.638-.092 2.298-.115v7.753c0 2.5 0 4.382-.182 7.111ZM151.276 20.782h1.979l9.646-11.79v4.68c0 2.5 0 4.38-.183 7.11h4.096l.5-1.193-.068-.114c-.956.069-1.638.091-2.298.114v-7.753c0-1.79 0-3.257.068-4.955l1.661-2.041-.046-.115h-3.344c-1.661 2.225-2.775 3.556-4.345 5.482l-5.482 6.699v-5.07c0-2.5 0-4.381.182-7.11h-4.095l-.501 1.192.069.115c.955-.07 1.637-.092 2.297-.115v7.753c0 2.5 0 4.382-.136 7.111ZM179.144 4.06l3.685-3.922-.046-.138h-2.866l-2.184 3.945.069.115h1.342Zm-7.189 16.722h1.979l9.646-11.79v4.68c0 2.5 0 4.38-.182 7.11h4.095l.5-1.192-.068-.115c-.956.068-1.638.092-2.298.114v-7.753c0-1.789 0-3.257.068-4.955l1.661-2.04-.045-.116h-3.344c-1.661 2.225-2.776 3.556-4.346 5.483l-5.482 6.698v-5.07c0-2.5 0-4.381.182-7.11h-4.095l-.5 1.192.068.115c.955-.069 1.638-.092 2.297-.115v7.753c0 2.5 0 4.381-.136 7.111ZM35.87 57.795H43.7l.862-2.053-.118-.197c-1.644.118-2.819.158-3.955.197V42.397c0-4.304 0-7.542.313-12.241H.862L0 32.209l.117.198c1.645-.119 2.82-.158 3.956-.198v13.346c0 4.304 0 7.542-.314 12.24h4.934c-.313-4.698-.313-7.936-.313-12.24V32.92h11.748v12.635c0 4.304 0 7.542-.314 12.24h4.934c-.313-4.698-.313-7.936-.313-12.24V32.92h11.748v12.635c0 4.304 0 7.542-.313 12.24ZM71.896 30.156H52.943l-.862 2.053.118.198c1.644-.119 2.82-.158 3.955-.198v13.346c0 4.304 0 7.542-.313 12.24h16.916l2.075-3.08-.235-.276c-4.346.632-10.337 1.224-14.136 1.303v-9.594h5.796v-4.344H60.46V32.25c4.739.237 9.751 1.066 13.589 1.737l.234-.276-2.388-3.554ZM78.24 57.795h7.949l.861-2.053-.117-.197c-1.528.118-2.741.158-4.073.197l2.154-3.79h12.883c.235 1.816.43 3.672.627 5.843h6.931l.861-2.053-.117-.197c-1.37.118-2.506.158-3.524.158l-2.037-13.386c-.665-4.264-1.096-7.502-1.527-12.161h-9.163l-1.136 2.685.118.197c1.644-.236 2.741-.434 4.503-.513L84.74 47.292c-2.154 3.673-3.838 6.476-6.5 10.503Zm9.045-9.831 8.067-14.057 1.645 11.727.313 2.33H87.285ZM149.117 57.795h7.832l.861-2.053-.117-.197c-1.645.118-2.819.158-3.955.197V42.397c0-4.304 0-7.542.313-12.241h-39.942l-.861 2.053.117.198c1.645-.119 2.82-.158 3.955-.198v13.346c0 4.304 0 7.542-.313 12.24h4.934c-.313-4.698-.313-7.936-.313-12.24V32.92h11.747v12.635c0 4.304 0 7.542-.313 12.24h4.934c-.313-4.698-.313-7.936-.313-12.24V32.92h11.747v12.635c0 4.304 0 7.542-.313 12.24ZM170.263 57.795h7.832l.861-2.053-.117-.197c-1.645.118-2.819.158-3.955.197v-6.357h3.29c7.087 0 11.825-3.87 11.825-9.634 0-5.725-4.738-9.595-11.825-9.595h-10.809l-.861 2.053.117.198c1.645-.119 2.82-.158 3.956-.198v13.346c0 4.304 0 7.542-.314 12.24Zm4.621-10.503V32.25h2.937c4.66 0 7.597 2.921 7.597 7.502 0 4.62-2.937 7.541-7.597 7.541h-2.937Z" />
</svg>